<?xml version="1.0" standalone="no"?>
<!DOCTYPE svg PUBLIC "-//W3C//DTD SVG 20010904//EN"
 "http://www.w3.org/TR/2001/REC-SVG-20010904/DTD/svg10.dtd">
<svg version="1.0" xmlns="http://www.w3.org/2000/svg"
 width="48" height="48" viewBox="0 0 289.000000 352.000000"
 preserveAspectRatio="xMidYMid meet">

<g transform="translate(0.000000,352.000000) scale(0.100000,-0.100000)"
fill="#000000" stroke="none">
<path d="M1885 3374 c-117 -26 -332 -53 -505 -63 -96 -6 -213 -17 -260 -25
-300 -53 -558 -191 -705 -377 -71 -90 -145 -244 -177 -364 -21 -82 -23 -111
-23 -315 1 -227 12 -330 50 -455 15 -52 13 -65 -12 -65 -9 0 -35 -11 -59 -25
-53 -31 -84 -91 -84 -162 0 -120 52 -313 119 -446 l39 -76 -26 -63 c-23 -56
-26 -76 -25 -173 0 -89 5 -127 27 -200 88 -292 301 -511 496 -509 56 0 78 6
165 47 l100 48 85 -39 c124 -57 214 -77 340 -76 119 2 242 32 341 86 l57 30
99 -48 c88 -43 105 -48 168 -48 59 0 81 5 140 34 143 69 279 244 347 450 28
84 32 108 32 215 1 102 -2 130 -23 185 l-23 66 40 79 c74 148 118 332 110 458
-5 90 -39 134 -130 166 l-26 10 14 48 c28 92 53 233 63 356 25 297 -38 557
-169 700 -35 39 -50 63 -50 83 -1 117 -52 167 -191 189 l-36 5 -12 73 c-17
107 -39 163 -72 192 -26 22 -40 25 -97 24 -37 -1 -94 -7 -127 -15z m171 -232
c22 -131 39 -154 130 -171 114 -22 104 -15 104 -79 1 -66 10 -85 68 -136 47
-43 102 -146 128 -241 11 -39 18 -118 21 -221 8 -251 -21 -418 -106 -611 -26
-59 -85 -192 -131 -295 l-83 -187 -49 -10 c-27 -6 -62 -17 -77 -25 -26 -14
-35 -12 -134 28 -123 51 -162 72 -309 172 -112 77 -148 89 -227 82 -58 -6
-100 -27 -202 -100 -129 -92 -382 -210 -405 -188 -5 5 -31 15 -59 22 l-50 14
-97 198 -98 198 27 26 c20 21 41 78 92 247 105 348 154 431 299 503 l76 37
351 0 c364 1 408 5 534 49 24 9 45 16 46 16 2 0 9 -24 15 -52 7 -29 22 -73 33
-98 24 -51 126 -158 174 -184 32 -16 32 -16 48 14 14 28 14 30 -7 41 -40 21
-130 113 -150 152 -11 22 -26 69 -33 106 -17 82 -40 104 -88 89 -17 -5 -72
-22 -122 -37 l-90 -26 -320 2 c-350 3 -406 -2 -501 -47 -157 -75 -226 -186
-325 -524 -42 -146 -76 -236 -89 -236 -12 0 -50 92 -69 171 -32 125 -44 266
-38 447 6 198 18 254 89 402 45 94 61 115 147 200 80 79 113 104 196 147 177
91 330 128 595 144 191 11 355 31 525 63 70 13 125 19 131 14 6 -4 20 -57 30
-116z m-1654 -1568 c21 -9 195 -376 181 -381 -7 -3 -54 -24 -103 -49 -50 -24
-98 -44 -106 -44 -35 0 -119 245 -130 379 -6 74 -5 79 17 95 18 13 36 16 76
12 28 -3 57 -9 65 -12z m2181 -3 c12 -12 11 -100 -3 -171 -17 -82 -38 -146
-77 -231 l-35 -77 -97 45 c-53 24 -99 47 -103 51 -4 4 30 90 75 192 82 184 83
185 122 197 42 13 102 10 118 -6z m-1085 -210 c20 -11 69 -43 107 -71 68 -50
315 -180 342 -180 20 0 15 -14 -16 -44 -16 -15 -43 -47 -60 -71 l-31 -44 29
-20 30 -21 29 42 c74 106 174 171 264 172 36 0 71 -12 162 -57 103 -50 119
-62 145 -102 41 -65 55 -132 48 -234 -19 -286 -233 -584 -435 -607 -43 -5 -59
0 -198 69 l-151 75 -69 -34 c-103 -51 -222 -78 -310 -71 -79 7 -211 46 -262
77 -30 19 -35 19 -62 5 -16 -8 -36 -15 -45 -15 -8 0 -61 -23 -118 -52 -85 -43
-111 -52 -157 -52 -267 -2 -549 520 -429 794 30 69 65 98 175 150 128 61 151
65 217 46 87 -25 175 -118 207 -218 12 -39 37 -49 68 -30 21 14 -23 122 -79
193 -32 40 -35 49 -18 49 34 0 220 95 329 168 68 47 134 88 145 93 36 14 105
9 143 -10z"/>
<path d="M828 1839 c-22 -12 -23 -33 -2 -53 23 -23 315 -23 338 0 20 19 20 29
0 48 -13 13 -42 16 -167 16 -85 0 -160 -5 -169 -11z"/>
<path d="M1672 1838 c-7 -7 -12 -19 -12 -28 0 -35 21 -40 173 -40 152 0 187 7
187 38 0 38 -19 42 -180 42 -108 0 -160 -4 -168 -12z"/>
<path d="M925 1625 c-57 -31 -62 -75 -12 -105 64 -40 180 -18 193 36 16 62
-107 109 -181 69z"/>
<path d="M1773 1625 c-90 -39 -45 -125 67 -125 52 0 86 14 105 44 43 65 -78
122 -172 81z"/>
<path d="M2326 919 c-93 -50 -203 -207 -257 -369 -39 -115 -46 -252 -16 -307
82 -153 296 -8 411 280 110 276 36 488 -138 396z m105 -66 c10 -11 14 -42 13
-97 -2 -140 -76 -316 -178 -424 -85 -91 -128 -103 -153 -45 -39 95 28 319 140
469 74 98 145 137 178 97z"/>
<path d="M368 905 c-52 -52 -61 -145 -28 -282 56 -234 225 -452 351 -453 32 0
74 31 94 70 20 39 20 174 -1 254 -21 84 -92 229 -147 301 -63 83 -126 127
-191 133 -45 4 -54 1 -78 -23z m134 -71 c85 -59 179 -220 218 -373 26 -101 8
-221 -34 -221 -24 0 -93 54 -135 105 -112 136 -187 372 -152 478 10 30 17 37
39 37 14 0 43 -12 64 -26z"/>
<path d="M1209 884 c-9 -11 -10 -20 -2 -32 9 -15 35 -17 213 -17 178 0 204 2
213 17 8 12 7 21 -2 32 -20 24 -402 24 -422 0z"/>
<path d="M1126 707 c-13 -10 -16 -20 -12 -35 7 -22 8 -22 300 -22 214 0 295 3
304 12 16 16 15 23 -4 42 -13 14 -54 16 -293 16 -214 0 -281 -3 -295 -13z"/>
<path d="M1204 515 c-4 -8 -4 -22 0 -30 4 -13 38 -15 215 -15 176 0 210 2 215
15 3 8 3 22 0 30 -5 13 -39 15 -215 15 -177 0 -211 -2 -215 -15z"/>
</g>
</svg>
